# xmcd
#
# Track frame offsets:
#	150
#	17583
#	35629
#	50046
#	65883
#	84270
#	99052
#	114760
#	130222
#	143994
#	157902
#	171557
#
# Disc length: 2550 seconds
# Revision: 1
# Processed by: cddbd v1.5.2PL0 Copyright (c) Steve Scherf et al.
# Submitted via: dBpowerAMP V12.0
#
DISCID=9b09f40c
DTITLE=Jessie James Decker - Southern Girl City Lights
DYEAR=2017
DGENRE=Country
TTITLE0=Southern Girl City Lights
TTITLE1=Fall in Love
TTITLE2=Hold a Candle
TTITLE3=Almost Over You
TTITLE4=All Filled Up
TTITLE5=Open All Night
TTITLE6=Another Dumb Love Song
TTITLE7=Do You
TTITLE8=Hungry
TTITLE9=Pretty Girl
TTITLE10=Use Your Words
TTITLE11=Girl Like Me
EXTD=
EXTT0=
EXTT1=
EXTT2=
EXTT3=
EXTT4=
EXTT5=
EXTT6=
EXTT7=
EXTT8=
EXTT9=
EXTT10=
EXTT11=
PLAYORDER=
